{
  "accessors": [
    {
      "bufferView": 2,
      "componentType": 5126,
      "count": 796,
      "max": [
        1.6990646123886108,
        2.0616211891174316,
        1.1565481424331665
      ],
      "min": [
        -1.7171730995178223,
        -0.016035394743084908,
        -1.1529145240783691
      ],
      "type": "VEC3"
    },
    {
      "bufferView": 2,
      "byteOffset": 9552,
      "componentType": 5126,
      "count": 796,
      "max": [
        0.9999575614929199,
        0.9998934268951416,
        0.9999926090240479
      ],
      "min": [
        -0.9999887943267822,
        -0.27690747380256653,
        -0.9999713897705078
      ],
      "type": "VEC3"
    },
    {
      "bufferView": 1,
      "componentType": 5126,
      "count": 796,
      "max": [
        0.875,
        1.0
      ],
      "min": [
        0.375,
        0.0
      ],
      "type": "VEC2"
    },
    {
      "bufferView": 0,
      "componentType": 5125,
      "count": 2664,
      "type": "SCALAR"
    },
    {
      "bufferView": 2,
      "byteOffset": 19104,
      "componentType": 5126,
      "count": 974,
      "max": [
        1.8184388875961304,
        2.2144272327423096,
        1.2208130359649658
      ],
      "min": [
        -1.8475935459136963,
        -0.03443799167871475,
        -1.2149604558944702
      ],
      "type": "VEC3"
    },
    {
      "bufferView": 2,
      "byteOffset": 30792,
      "componentType": 5126,
      "count": 974,
      "max": [
        0.9999954700469971,
        0.9999957084655762,
        0.9999783039093018
      ],
      "min": [
        -0.99998939037323,
        -0.9999876022338867,
        -0.9999936819076538
      ],
      "type": "VEC3"
    },
    {
      "bufferView": 1,
      "byteOffset": 6368,
      "componentType": 5126,
      "count": 974,
      "max": [
        0.875,
        1.0
      ],
      "min": [
        0.125,
        0.0
      ],
      "type": "VEC2"
    },
    {
      "bufferView": 0,
      "byteOffset": 10656,
      "componentType": 5125,
      "count": 3576,
      "type": "SCALAR"
    }
  ],
  "asset": {
    "extras": {
      "author": "Kelvin Cipta (https://sketchfab.com/kelvincipta)",
      "license": "SKETCHFAB Standard (https://sketchfab.com/licenses)",
      "source": "https://sketchfab.com/3d-models/wood-crate-8ef8129ff1bf4e0e9e6d5798e806d917",
      "title": "Wood Crate"
    },
    "generator": "Sketchfab-16.12.0",
    "version": "2.0"
  },
  "bufferViews": [
    {
      "buffer": 0,
      "byteLength": 24960,
      "name": "floatBufferViews",
      "target": 34963
    },
    {
      "buffer": 0,
      "byteLength": 14160,
      "byteOffset": 24960,
      "byteStride": 8,
      "name": "floatBufferViews",
      "target": 34962
    },
    {
      "buffer": 0,
      "byteLength": 42480,
      "byteOffset": 39120,
      "byteStride": 12,
      "name": "floatBufferViews",
      "target": 34962
    }
  ],
  "buffers": [
    {
      "byteLength": 81600,
      "uri": "scene.bin"
    }
  ],
  "materials": [
    {
      "doubleSided": true,
      "name": "LightWood.001",
      "pbrMetallicRoughness": {
        "baseColorFactor": [
          0.800424,
          0.466742,
          0.275831,
          1.0
        ],
        "metallicFactor": 0.0,
        "roughnessFactor": 0.5
      }
    },
    {
      "doubleSided": true,
      "name": "DarkWood.001",
      "pbrMetallicRoughness": {
        "baseColorFactor": [
          0.130778,
          0.0287905,
          0.014709,
          1.0
        ],
        "metallicFactor": 0.0,
        "roughnessFactor": 0.5
      }
    }
  ],
  "meshes": [
    {
      "name": "Object_0",
      "primitives": [
        {
          "attributes": {
            "NORMAL": 1,
            "POSITION": 0,
            "TEXCOORD_0": 2
          },
          "indices": 3,
          "material": 0,
          "mode": 4
        }
      ]
    },
    {
      "name": "Object_1",
      "primitives": [
        {
          "attributes": {
            "NORMAL": 5,
            "POSITION": 4,
            "TEXCOORD_0": 6
          },
          "indices": 7,
          "material": 1,
          "mode": 4
        }
      ]
    }
  ],
  "nodes": [
    {
      "children": [
        1
      ],
      "matrix": [
        1.0,
        0.0,
        0.0,
        0.0,
        0.0,
        2.220446049250313e-16,
        -1.0,
        0.0,
        0.0,
        1.0,
        2.220446049250313e-16,
        0.0,
        0.0,
        0.0,
        0.0,
        1.0
      ],
      "name": "Sketchfab_model"
    },
    {
      "children": [
        2
      ],
      "name": "root"
    },
    {
      "children": [
        3
      ],
      "matrix": [
        1.0,
        0.0,
        0.0,
        0.0,
        0.0,
        2.220446049250313e-16,
        1.0,
        0.0,
        0.0,
        -1.0,
        2.220446049250313e-16,
        0.0,
        0.0,
        0.0,
        0.0,
        1.0
      ],
      "name": "GLTF_SceneRootNode"
    },
    {
      "children": [
        4,
        5
      ],
      "name": "Wood Crate_0"
    },
    {
      "mesh": 0,
      "name": "Object_4"
    },
    {
      "mesh": 1,
      "name": "Object_5"
    }
  ],
  "scene": 0,
  "scenes": [
    {
      "name": "Sketchfab_Scene",
      "nodes": [
        0
      ]
    }
  ]
}
